<svg width="1200pt" height="1200pt" version="1.1" viewBox="0 0 1200 1200" xmlns="http://www.w3.org/2000/svg">
 <g>
  <path d="m1023.1 741.82 128.18 224.87h-235.09v-34.672c-45.75-0.082032-47.395 35.164-106.64 34.668-59.012 0.49609-60.508-35.117-106.77-34.668-44.859-0.4375-46.965 34.078-104.01 34.668-57.051-0.58984-59.148-35.105-104.01-34.668-46.266-0.44922-47.766 35.164-106.78 34.668-59.238 0.49609-60.883-34.75-106.63-34.668v34.672h-235.09l128.18-224.87h106.91v82.184c59.109 0.85938 60.633 36.289 106.63 36.051 45.652 0.23828 47.148-35.473 106.78-36.051 57.754 0.57031 60.285 34.777 104.01 35.914 43.723-1.1367 46.25-35.344 104.01-35.914 59.625 0.57813 61.121 36.285 106.77 36.051 46 0.23828 47.531-35.191 106.64-36.051v-82.184zm-106.91 118.23c-45.75 0.42969-47.395 35.633-106.64 35.914-59.012-0.28125-60.367-35.848-106.63-35.914-44.887 0.066406-46.992 34.484-104.14 35.777-57.152-1.293-59.262-35.711-104.15-35.777-46.262 0.066406-47.625 35.633-106.64 35.914-59.238-0.28125-60.883-35.484-106.63-35.914v35.914c59.109 0.34766 60.633 35.77 106.63 36.051 45.652-0.28125 47.012-35.988 106.64-36.051 57.805 0.0625 60.328 34.344 104.15 35.91 43.82-1.5664 46.344-35.848 104.14-35.91 59.625 0.0625 60.984 35.77 106.63 36.051 46-0.28125 47.531-35.703 106.64-36.051z" fill="white"/>
  <path d="m281.37 741.82-64.246-64.246 446.94-446.94 64.246 64.246z" fill="white"/>
 </g>
</svg>
