<svg width="50" height="43" viewBox="0 0 50 43" fill="none" xmlns="http://www.w3.org/2000/svg">
<g clip-path="url(#clip0_0_1)">
<path d="M1.25687 43H48.7431C49.1923 43 49.6073 42.7636 49.8317 42.3806C50.0561 41.9972 50.0561 41.5253 49.8317 41.1419L26.0886 0.619368C25.8638 0.236363 25.4492 0 25 0C24.5508 0 24.1362 0.236372 23.9114 0.619368L0.168282 41.1419C-0.056094 41.5253 -0.056094 41.9972 0.168282 42.3806C0.392658 42.7636 0.807694 43 1.25687 43ZM25 36.7605C24.5555 36.7605 24.1292 36.5864 23.815 36.2767C23.5007 35.967 23.324 35.5469 23.324 35.109C23.324 34.671 23.5007 34.2509 23.815 33.9413C24.1293 33.6312 24.5555 33.4575 25 33.4575C25.4445 33.4575 25.8708 33.6316 26.185 33.9413C26.4993 34.251 26.676 34.671 26.676 35.109C26.676 35.547 26.4993 35.967 26.185 36.2767C25.8707 36.5864 25.4445 36.7605 25 36.7605ZM23.3239 15.6238C23.3251 15.0346 23.6448 14.4904 24.1629 14.1961C24.681 13.9018 25.3188 13.9017 25.837 14.1961C26.3552 14.4905 26.6748 15.0347 26.676 15.6238V28.5598C26.6768 28.9985 26.5004 29.4193 26.1862 29.7294C25.8715 30.0399 25.4448 30.2144 24.9999 30.2144C24.5547 30.2144 24.128 30.0399 23.8137 29.7294C23.4994 29.4194 23.3231 28.9985 23.3239 28.5598V15.6238Z" fill="white"/>
</g>
<defs>
<clipPath id="clip0_0_1">
<rect width="50" height="43" fill="white"/>
</clipPath>
</defs>
</svg>
